<svg width="10" height="16" viewBox="0 0 10 16" fill="none" xmlns="http://www.w3.org/2000/svg">
<path d="M0.530214 15.3149C0.529706 15.2272 0.546523 15.1402 0.5797 15.059C0.612876 14.9777 0.661759 14.9039 0.723546 14.8416L7.58355 7.98156L0.723547 1.12156C0.614329 0.994025 0.55726 0.829975 0.563741 0.662191C0.570222 0.494407 0.639775 0.335247 0.758505 0.216517C0.877235 0.0977877 1.0364 0.0282331 1.20418 0.0217523C1.37196 0.0152716 1.53601 0.0723423 1.66355 0.18156L9.47021 7.98156L1.66355 15.7882C1.56996 15.88 1.45141 15.9421 1.32271 15.9668C1.19401 15.9916 1.06088 15.9778 0.93995 15.9273C0.819021 15.8768 0.71566 15.7918 0.642785 15.6829C0.569911 15.5739 0.530756 15.4459 0.530214 15.3149Z" fill="#2B2B2B"/>
</svg>
