<svg width="10" height="16" viewBox="0 0 10 16" fill="none" xmlns="http://www.w3.org/2000/svg">
<path d="M9.46979 0.685107C9.4703 0.772845 9.45348 0.859821 9.4203 0.941046C9.38713 1.02227 9.33824 1.09615 9.27645 1.15844L2.41645 8.01844L9.27645 14.8784C9.38567 15.006 9.44274 15.17 9.43626 15.3378C9.42978 15.5056 9.36022 15.6648 9.2415 15.7835C9.12276 15.9022 8.9636 15.9718 8.79582 15.9782C8.62804 15.9847 8.46399 15.9277 8.33645 15.8184L0.529786 8.01844L8.33645 0.211775C8.43004 0.120037 8.54859 0.0579177 8.67729 0.0331813C8.80599 0.00844396 8.93912 0.0221874 9.06005 0.072694C9.18098 0.1232 9.28434 0.208227 9.35722 0.317149C9.43009 0.426071 9.46925 0.554056 9.46979 0.685107Z" fill="#2B2B2B"/>
</svg>
