<svg width="28" height="41" viewBox="0 0 28 41" fill="none" xmlns="http://www.w3.org/2000/svg">
<path d="M9 40.2422C6.5 40.2422 4.375 39.3672 2.625 37.6172C0.875 35.8672 0 33.7422 0 31.2422C0 30.1755 0.241667 29.1672 0.725 28.2172C1.20833 27.2672 2.01667 26.2255 3.15 25.0922C3.65 24.5922 4.05 24.1755 4.35 23.8422C4.65 23.5089 4.96667 23.1422 5.3 22.7422C3.6 20.1422 2.29167 17.4172 1.375 14.5672C0.458333 11.7172 0 8.94219 0 6.24219C0 4.30885 0.35 2.82552 1.05 1.79219C1.75 0.758854 2.73333 0.242188 4 0.242188C5.4 0.242188 6.85 0.925521 8.35 2.29219C9.85 3.65885 11.1667 5.47552 12.3 7.74219C12.6333 8.40885 12.9417 9.10052 13.225 9.81719C13.5083 10.5339 13.7667 11.3255 14 12.1922C14.2333 11.3255 14.4917 10.5339 14.775 9.81719C15.0583 9.10052 15.3667 8.40885 15.7 7.74219C16.8333 5.47552 18.15 3.65885 19.65 2.29219C21.15 0.925521 22.6 0.242188 24 0.242188C25.2667 0.242188 26.25 0.758854 26.95 1.79219C27.65 2.82552 28 4.30885 28 6.24219C28 8.94219 27.5417 11.7172 26.625 14.5672C25.7083 17.4172 24.4 20.1422 22.7 22.7422C23.0333 23.1422 23.35 23.5089 23.65 23.8422C23.95 24.1755 24.35 24.5922 24.85 25.0922C25.9833 26.2255 26.7917 27.2672 27.275 28.2172C27.7583 29.1672 28 30.1755 28 31.2422C28 33.7422 27.125 35.8672 25.375 37.6172C23.625 39.3672 21.5 40.2422 19 40.2422C17.5 40.2422 16.2917 40.0755 15.375 39.7422C14.4583 39.4089 14 39.2422 14 39.2422C14 39.2422 13.5417 39.4089 12.625 39.7422C11.7083 40.0755 10.5 40.2422 9 40.2422ZM9 37.2422C9.56667 37.2422 10.2333 37.1505 11 36.9672C11.7667 36.7839 12.5833 36.5089 13.45 36.1422C13.0833 35.9755 12.75 35.6922 12.45 35.2922C12.15 34.8922 12 34.5422 12 34.2422C12 33.9755 12.1917 33.7422 12.575 33.5422C12.9583 33.3422 13.4333 33.2422 14 33.2422C14.5667 33.2422 15.0417 33.3422 15.425 33.5422C15.8083 33.7422 16 33.9755 16 34.2422C16 34.5422 15.85 34.8922 15.55 35.2922C15.25 35.6922 14.9167 35.9755 14.55 36.1422C15.4167 36.5089 16.2333 36.7839 17 36.9672C17.7667 37.1505 18.4333 37.2422 19 37.2422C20.6667 37.2422 22.0833 36.6589 23.25 35.4922C24.4167 34.3255 25 32.9089 25 31.2422C25 30.5089 24.8 29.7922 24.4 29.0922C24 28.3922 23.4167 27.7089 22.65 27.0422C22.2833 26.7089 21.875 26.3089 21.425 25.8422C20.975 25.3755 20.5667 24.9089 20.2 24.4422C19.1333 23.0422 18.2167 22.1589 17.45 21.7922C16.6833 21.4255 15.5333 21.2422 14 21.2422C12.4667 21.2422 11.3167 21.4255 10.55 21.7922C9.78333 22.1589 8.86667 23.0422 7.8 24.4422C7.43333 24.9089 7.025 25.3755 6.575 25.8422C6.125 26.3089 5.71667 26.7089 5.35 27.0422C4.58333 27.7089 4 28.3922 3.6 29.0922C3.2 29.7922 3 30.5089 3 31.2422C3 32.9089 3.58333 34.3255 4.75 35.4922C5.91667 36.6589 7.33333 37.2422 9 37.2422ZM11 29.7422C10.7333 29.7422 10.5 29.5922 10.3 29.2922C10.1 28.9922 10 28.6422 10 28.2422C10 27.8422 10.1 27.4922 10.3 27.1922C10.5 26.8922 10.7333 26.7422 11 26.7422C11.2667 26.7422 11.5 26.8922 11.7 27.1922C11.9 27.4922 12 27.8422 12 28.2422C12 28.6422 11.9 28.9922 11.7 29.2922C11.5 29.5922 11.2667 29.7422 11 29.7422ZM17 29.7422C16.7333 29.7422 16.5 29.5922 16.3 29.2922C16.1 28.9922 16 28.6422 16 28.2422C16 27.8422 16.1 27.4922 16.3 27.1922C16.5 26.8922 16.7333 26.7422 17 26.7422C17.2667 26.7422 17.5 26.8922 17.7 27.1922C17.9 27.4922 18 27.8422 18 28.2422C18 28.6422 17.9 28.9922 17.7 29.2922C17.5 29.5922 17.2667 29.7422 17 29.7422ZM7.35 20.3922C8.05 19.7255 8.74167 19.2339 9.425 18.9172C10.1083 18.6005 10.95 18.3922 11.95 18.2922C11.7833 16.5922 11.5 14.9339 11.1 13.3172C10.7 11.7005 10.1833 10.2589 9.55 8.99219C8.78333 7.42552 7.9 6.11719 6.9 5.06719C5.9 4.01719 4.85 3.30885 3.75 2.94219C3.48333 3.44219 3.29167 3.97552 3.175 4.54219C3.05833 5.10885 3 5.67552 3 6.24219C3 8.64219 3.375 11.0505 4.125 13.4672C4.875 15.8839 5.95 18.1922 7.35 20.3922ZM20.65 20.3922C22.05 18.1922 23.125 15.8839 23.875 13.4672C24.625 11.0505 25 8.64219 25 6.24219C25 5.67552 24.9417 5.10885 24.825 4.54219C24.7083 3.97552 24.5167 3.44219 24.25 2.94219C23.15 3.30885 22.1 4.01719 21.1 5.06719C20.1 6.11719 19.2167 7.42552 18.45 8.99219C17.8167 10.2589 17.3 11.7005 16.9 13.3172C16.5 14.9339 16.2167 16.5922 16.05 18.2922C17.05 18.3922 17.8917 18.6005 18.575 18.9172C19.2583 19.2339 19.95 19.7255 20.65 20.3922Z" fill="url(#paint0_linear_1083_14215)"/>
<defs>
<linearGradient id="paint0_linear_1083_14215" x1="28" y1="0.242184" x2="-6.90493" y2="7.6333" gradientUnits="userSpaceOnUse">
<stop stop-color="#DBB978"/>
<stop offset="1" stop-color="#584115"/>
</linearGradient>
</defs>
</svg>
