<svg width="49" height="49" viewBox="0 0 49 49" fill="none" xmlns="http://www.w3.org/2000/svg">
<g clip-path="url(#clip0_1349_16315)">
<rect x="8.58887" y="9.38867" width="31" height="31" rx="15.5" fill="white" fill-opacity="0.68"/>
<path d="M34.1308 18.6042C33.2374 16.7709 30.6641 15.2709 27.6708 16.1442C26.2404 16.5574 24.9924 17.4434 24.1308 18.6575C23.2691 17.4434 22.0211 16.5574 20.5908 16.1442C17.5908 15.2842 15.0241 16.7709 14.1308 18.6042C12.8774 21.1709 13.3974 24.0575 15.6774 27.1842C17.4641 29.6309 20.0174 32.1109 23.7241 34.9909C23.8412 35.0822 23.9855 35.1319 24.1341 35.1319C24.2827 35.1319 24.427 35.0822 24.5441 34.9909C28.2441 32.1175 30.8041 29.6575 32.5908 27.1842C34.8641 24.0575 35.3841 21.1709 34.1308 18.6042Z" fill="url(#paint0_linear_1349_16315)"/>
</g>
<defs>
<linearGradient id="paint0_linear_1349_16315" x1="34.796" y1="15.8887" x2="9.82136" y2="24.2629" gradientUnits="userSpaceOnUse">
<stop stop-color="#DBB978"/>
<stop offset="1" stop-color="#584115"/>
</linearGradient>
<clipPath id="clip0_1349_16315">
<rect x="8.58887" y="9.38867" width="31" height="31" rx="15.5" fill="white"/>
</clipPath>
</defs>
</svg>
