<svg width="49" height="49" viewBox="0 0 49 49" fill="none" xmlns="http://www.w3.org/2000/svg">
<g clip-path="url(#clip0_1349_16124)">
<rect x="8.58887" y="9.38867" width="31" height="31" rx="15.5" fill="#F2F2F2"/>
<path d="M24.1308 35.1309C23.9835 35.1304 23.8405 35.0812 23.7241 34.9909C20.0174 32.1109 17.4641 29.6309 15.6774 27.1842C13.3974 24.0575 12.8774 21.1709 14.1308 18.6042C15.0241 16.7709 17.5908 15.2709 20.5908 16.1442C22.0211 16.5574 23.2691 17.4434 24.1308 18.6575C24.9924 17.4434 26.2404 16.5574 27.6708 16.1442C30.6641 15.2842 33.2374 16.7709 34.1308 18.6042C35.3841 21.1709 34.8641 24.0575 32.5841 27.1842C30.7974 29.6309 28.2441 32.1109 24.5374 34.9909C24.4211 35.0812 24.2781 35.1304 24.1308 35.1309ZM18.8841 17.2309C18.1703 17.2031 17.4624 17.3702 16.8363 17.7144C16.2103 18.0585 15.6898 18.5666 15.3308 19.1842C14.2974 21.3042 14.7641 23.6642 16.7574 26.3909C18.8758 29.1233 21.3564 31.5545 24.1308 33.6175C26.9047 31.5565 29.3853 29.1276 31.5041 26.3975C33.5041 23.6642 33.9641 21.3042 32.9308 19.1909C32.2641 17.8575 30.2641 16.7975 28.0374 17.4242C27.3235 17.6352 26.6616 17.9933 26.0944 18.4756C25.5272 18.9578 25.0672 19.5535 24.7441 20.2242C24.6939 20.3465 24.6084 20.4511 24.4986 20.5247C24.3888 20.5983 24.2596 20.6376 24.1274 20.6376C23.9953 20.6376 23.866 20.5983 23.7562 20.5247C23.6464 20.4511 23.561 20.3465 23.5108 20.2242C23.1901 19.5518 22.7309 18.9548 22.1634 18.4722C21.5958 17.9897 20.9327 17.6325 20.2174 17.4242C19.7841 17.2983 19.3354 17.2333 18.8841 17.2309Z" fill="url(#paint0_linear_1349_16124)"/>
</g>
<defs>
<linearGradient id="paint0_linear_1349_16124" x1="34.7957" y1="15.8887" x2="9.8216" y2="24.263" gradientUnits="userSpaceOnUse">
<stop stop-color="#DBB978"/>
<stop offset="1" stop-color="#584115"/>
</linearGradient>
<clipPath id="clip0_1349_16124">
<rect x="8.58887" y="9.38867" width="31" height="31" rx="15.5" fill="white"/>
</clipPath>
</defs>
</svg>
