<svg width="48" height="49" viewBox="0 0 48 49" fill="none" xmlns="http://www.w3.org/2000/svg">
<mask id="mask0_1083_14223" style="mask-type:alpha" maskUnits="userSpaceOnUse" x="0" y="0" width="48" height="49">
<rect y="0.242188" width="48" height="48" fill="#D9D9D9"/>
</mask>
<g mask="url(#mask0_1083_14223)">
<path d="M18.4 18.6422L22.85 11.2922L19.9 6.39219C19.5 5.72552 18.925 5.39219 18.175 5.39219C17.425 5.39219 16.85 5.72552 16.45 6.39219L11.55 14.5422L18.4 18.6422ZM37.75 32.2422L33.3 24.8422L40.25 20.8422L43.45 26.1922C43.8167 26.7589 44.0083 27.4005 44.025 28.1172C44.0417 28.8339 43.9 29.4755 43.6 30.0422C43.2667 30.7089 42.775 31.2422 42.125 31.6422C41.475 32.0422 40.7667 32.2422 40 32.2422H37.75ZM32 46.2422L24 38.2422L32 30.2422V34.2422H41.5L38.6 40.0422C38.2333 40.7089 37.7333 41.2422 37.1 41.6422C36.4667 42.0422 35.7667 42.2422 35 42.2422H32V46.2422ZM12.65 42.2422C11.9833 42.2422 11.375 42.0672 10.825 41.7172C10.275 41.3672 9.86667 40.9089 9.6 40.3422C9.33333 39.8089 9.20833 39.2505 9.225 38.6672C9.24167 38.0839 9.4 37.5422 9.7 37.0422L11.4 34.2422H20V42.2422H12.65ZM7.7 36.5422L4.45 30.0422C4.15 29.4422 4.00833 28.8005 4.025 28.1172C4.04167 27.4339 4.23333 26.7922 4.6 26.1922L5.4 24.8422L2 22.7922L12.95 20.0422L15.7 31.0422L12.25 28.9422L7.7 36.5422ZM34.7 19.4422L23.75 16.6922L27.2 14.6422L20.95 4.24219H28C28.7 4.24219 29.3583 4.41719 29.975 4.76719C30.5917 5.11719 31.0833 5.59219 31.45 6.19219L34.05 10.5422L37.45 8.44219L34.7 19.4422Z" fill="url(#paint0_linear_1083_14223)"/>
</g>
<defs>
<linearGradient id="paint0_linear_1083_14223" x1="44.0263" y1="4.24218" x2="-6.11863" y2="19.4205" gradientUnits="userSpaceOnUse">
<stop stop-color="#DBB978"/>
<stop offset="1" stop-color="#584115"/>
</linearGradient>
</defs>
</svg>
