<svg width="36" height="41" viewBox="0 0 36 41" fill="none" xmlns="http://www.w3.org/2000/svg">
<path d="M35.6471 37.6829L33.4593 39.8879L27.8568 34.2854L27.558 33.9866L27.4399 34.3924C26.9711 36.0043 25.9928 37.421 24.6515 38.4304C23.3102 39.4399 21.6781 39.9878 19.9993 39.9922C17.9442 39.992 15.9732 39.1755 14.5199 37.7223C13.0665 36.2689 12.25 34.2976 12.25 32.2422V18.7822V18.6786L12.1768 18.6054L0.354248 6.78288L2.55931 4.59505L35.6471 37.6829ZM12 3.99219H10.25V0.492188H29.75V3.99219H28H27.75V4.24219V23.9986L23.6233 19.8719C24.0207 19.4662 24.25 18.9043 24.25 18.2422C24.25 17.5854 24.03 17.0186 23.6268 16.6154C23.2236 16.2122 22.6568 15.9922 22 15.9922C21.3378 15.9922 20.776 16.2215 20.3702 16.6189L12.25 8.49863V4.24219V3.99219H12ZM20.2422 26.784L20.2775 26.6461L20.1768 26.5454L17.6968 24.0654L17.5961 23.9647L17.4582 24C16.4034 24.2693 15.75 25.1322 15.75 26.2422C15.75 26.899 15.97 27.4658 16.3732 27.869C16.7764 28.2722 17.3432 28.4922 18 28.4922C19.11 28.4922 19.9729 27.8388 20.2422 26.784ZM24 10.4922H24.25V10.2422V4.24219V3.99219H24H16H15.75V4.24219V10.2422V10.4922H16H24Z" fill="url(#paint0_linear_1083_14219)" stroke="#EEE8D8" stroke-width="0.5"/>
<defs>
<linearGradient id="paint0_linear_1083_14219" x1="36" y1="0.242184" x2="-7.65434" y2="12.1271" gradientUnits="userSpaceOnUse">
<stop stop-color="#DBB978"/>
<stop offset="1" stop-color="#584115"/>
</linearGradient>
</defs>
</svg>
