<svg width="32" height="41" viewBox="0 0 32 41" fill="none" xmlns="http://www.w3.org/2000/svg">
<path d="M16 40.2422C11.7667 40.2422 8.04167 38.7672 4.825 35.8172C1.60833 32.8672 0 28.8755 0 23.8422C0 20.5089 1.325 16.8839 3.975 12.9672C6.625 9.05052 10.6333 4.80885 16 0.242188C21.3667 4.80885 25.375 9.05052 28.025 12.9672C30.675 16.8839 32 20.5089 32 23.8422C32 28.8755 30.3917 32.8672 27.175 35.8172C23.9583 38.7672 20.2333 40.2422 16 40.2422ZM16 37.2422C19.6667 37.2422 22.75 35.9755 25.25 33.4422C27.75 30.9089 29 27.7089 29 23.8422C29 21.2089 27.8917 18.2172 25.675 14.8672C23.4583 11.5172 20.2333 7.97552 16 4.24219C11.7667 7.97552 8.54167 11.5172 6.325 14.8672C4.10833 18.2172 3 21.2089 3 23.8422C3 27.7089 4.25 30.9089 6.75 33.4422C9.25 35.9755 12.3333 37.2422 16 37.2422ZM15.95 33.8422C16.4833 33.8422 16.8917 33.7505 17.175 33.5672C17.4583 33.3839 17.6 33.1089 17.6 32.7422C17.6 32.3755 17.4583 32.0922 17.175 31.8922C16.8917 31.6922 16.4667 31.5922 15.9 31.5922C14.5 31.5922 13.075 31.1505 11.625 30.2672C10.175 29.3839 9.25 27.8255 8.85 25.5922C8.78333 25.2922 8.63333 25.0505 8.4 24.8672C8.16667 24.6839 7.91667 24.5922 7.65 24.5922C7.28333 24.5922 7 24.7339 6.8 25.0172C6.6 25.3005 6.53333 25.5922 6.6 25.8922C7.1 28.6922 8.28333 30.7172 10.15 31.9672C12.0167 33.2172 13.95 33.8422 15.95 33.8422Z" fill="url(#paint0_linear_1083_14230)"/>
<defs>
<linearGradient id="paint0_linear_1083_14230" x1="32" y1="0.242184" x2="-7.3741" y2="9.77071" gradientUnits="userSpaceOnUse">
<stop stop-color="#DBB978"/>
<stop offset="1" stop-color="#584115"/>
</linearGradient>
</defs>
</svg>
